<?xml version="1.0" encoding="UTF-8" standalone="no"?>
<!-- Created with Inkscape (http://www.inkscape.org/) -->

<svg
   width="300mm"
   height="400mm"
   viewBox="0 0 300 400"
   version="1.1"
   id="svg872"
   inkscape:version="1.2.2 (732a01da63, 2022-12-09)"
   sodipodi:docname="ArreglosUltimos.svg"
   xml:space="preserve"
   inkscape:export-filename="ArreglosUltimos.pdf"
   inkscape:export-xdpi="96"
   inkscape:export-ydpi="96"
   xmlns:inkscape="http://www.inkscape.org/namespaces/inkscape"
   xmlns:sodipodi="http://sodipodi.sourceforge.net/DTD/sodipodi-0.dtd"
   xmlns="http://www.w3.org/2000/svg"
   xmlns:svg="http://www.w3.org/2000/svg"><sodipodi:namedview
     id="namedview874"
     pagecolor="#ffffff"
     bordercolor="#666666"
     borderopacity="1.0"
     inkscape:showpageshadow="2"
     inkscape:pageopacity="0.0"
     inkscape:pagecheckerboard="0"
     inkscape:deskcolor="#d1d1d1"
     inkscape:document-units="mm"
     showgrid="false"
     inkscape:zoom="0.3581229"
     inkscape:cx="57.242919"
     inkscape:cy="769.28898"
     inkscape:window-width="1920"
     inkscape:window-height="991"
     inkscape:window-x="-9"
     inkscape:window-y="-9"
     inkscape:window-maximized="1"
     inkscape:current-layer="layer1"
     showguides="false" /><defs
     id="defs869"><marker
       id="DistanceX"
       orient="auto"
       refX="0.0"
       refY="0.0"
       style="overflow:visible"><path
         d="M 3,-3 L -3,3 M 0,-5 L  0,5"
         style="stroke:#000000; stroke-width:0.5"
         id="path3564" /></marker><pattern
       id="Hatch"
       patternUnits="userSpaceOnUse"
       width="8"
       height="8"
       x="0"
       y="0"><path
         d="M8 4 l-4,4"
         stroke="#000000"
         stroke-width="0.25"
         linecap="square"
         id="path3567" /><path
         d="M6 2 l-4,4"
         stroke="#000000"
         stroke-width="0.25"
         linecap="square"
         id="path3569" /><path
         d="M4 0 l-4,4"
         stroke="#000000"
         stroke-width="0.25"
         linecap="square"
         id="path3571" /></pattern><symbol
       id="*Model_Space" /><symbol
       id="*Paper_Space" /><symbol
       id="*Paper_Space0" /></defs><g
     inkscape:label="Layer 1"
     inkscape:groupmode="layer"
     id="layer1"><path
       id="path267"
       style="fill:none;stroke:#ff0000;stroke-width:0.005;stroke-dasharray:none;stroke-opacity:1"
       d="m 26.437986,17.886516 v -5.02 h 5.02 v 5.02 z m 35.999995,0 v -5.02 h 5.02 v 5.02 z m 36.000012,0 v -5.02 h 5.019987 v 5.02 z m 35.999987,0 v -5.02 h 5.02001 v 5.02 z m -128.9899944,-7.51 h 3.000001 v 10 h -3.000001 z m 3.5,3 h 4.0000004 v 4 H 8.9479856 Z m 4.5000004,-3 h 3 v 10 h -3 z m 35.500001,3 v 4 h -4 v -4 z m 0.499999,7 v -10 h 2.999999 v 10 z m -5,-10 v 10 h -3 v -10 z m 40.500007,3 v 4 h -4 v -4 z m 0.49999,7 v -10 h 3.00001 v 10 z m -4.99999,-10 v 10 h -3.00001 v -10 z m 40.499987,3 v 4 h -4 v -4 z m 0.50001,7 v -10 h 2.99999 v 10 z m -5,-10 v 10 h -3.00001 v -10 z M 48.947987,73.376508 v 3.999997 h -4 v -3.999997 z m 0.499999,7.000002 V 70.376506 h 2.999999 V 80.37651 Z m -5,-10.000004 V 80.37651 h -3 V 70.376506 Z m 40.500007,3.000002 v 3.999997 h -4 v -3.999997 z m 0.49999,7.000002 V 70.376506 h 3.00001 V 80.37651 Z M 80.447993,70.376506 V 80.37651 h -3.00001 V 70.376506 Z m 40.499987,3.000002 v 3.999997 h -4 v -3.999997 z m 0.50001,7.000002 V 70.376506 h 2.99999 V 80.37651 Z m -5,-10.000004 V 80.37651 h -3.00001 V 70.376506 Z m 40.99999,-59.99999 h 3 v 10 h -3 z m -0.5,7 h -4 v -4 h 4 z M 5.4479856,80.37651 V 70.376506 h 3.000001 V 80.37651 Z m 8.0000004,0 V 70.376506 h 3 V 80.37651 Z m 146.999994,0 h -3 V 70.376506 h 3 z m -8,0 h -3 V 70.376506 h 3 z M 12.947986,77.376505 H 8.9479856 V 73.376508 H 12.947986 Z M 152.44798,10.376516 v 10 h -3 v -10 z m 0.5,62.999992 h 4 v 3.999997 h -4 z M 2.9479856,3.376516 V 83.376514 H 162.94798 V 3.376516 Z" /><path
       id="path267-2"
       style="fill:none;stroke:#ff0000;stroke-width:0.005;stroke-dasharray:none;stroke-opacity:1"
       d="m 26.699196,98.599581 v -5.019993 h 5.02 v 5.019993 z m 35.999995,0 v -5.019993 h 5.02 v 5.019993 z m 36.000002,0 v -5.019993 h 5.019997 v 5.019993 z m 35.999997,0 v -5.019993 h 5.02 v 5.019993 z M 5.7091936,91.089595 h 3.000001 v 10.000015 h -3.000001 z m 3.500001,3.000004 h 4.0000014 v 3.999997 H 9.2091946 Z m 4.5000004,-3.000004 h 2.999999 v 10.000015 h -2.999999 z m 35.499999,3.000004 v 3.999997 h -4 v -3.999997 z m 0.499999,7.000011 V 91.089595 h 3 v 10.000015 z m -5,-10.000015 V 101.08961 H 41.709194 V 91.089595 Z m 40.5,3.000004 v 3.999997 h -4 v -3.999997 z m 0.5,7.000011 V 91.089595 h 3.00001 v 10.000015 z m -4.99999,-10.000015 v 10.000015 h -3.00001 V 91.089595 Z m 40.499987,3.000004 v 3.999997 h -4 v -3.999997 z m 0.5,7.000011 V 91.089595 h 3 v 10.000015 z m -5,-10.000015 v 10.000015 h -3 V 91.089595 Z M 49.209194,154.08959 v 4 h -4 v -4 z m 0.499999,7 v -10.00001 h 3 v 10.00001 z m -5,-10.00001 v 10.00001 h -2.999999 v -10.00001 z m 40.5,3.00001 v 4 h -4 v -4 z m 0.5,7 v -10.00001 h 3.00001 v 10.00001 z m -4.99999,-10.00001 v 10.00001 h -3.00001 v -10.00001 z m 40.499987,3.00001 v 4 h -4 v -4 z m 0.5,7 v -10.00001 h 3 v 10.00001 z m -5,-10.00001 v 10.00001 h -3 v -10.00001 z m 41,-59.999985 h 3 v 10.000015 h -3 z m -0.5,7.000001 h -4 v -3.999997 h 4 z M 5.7091936,161.08959 v -10.00001 h 3.000001 v 10.00001 z m 8.0000014,0 v -10.00001 h 2.999999 v 10.00001 z m 146.999995,0 h -3 v -10.00001 h 3 z m -8,0 h -3 v -10.00001 h 3 z m -139.499994,-3 H 9.2091946 v -4 H 13.209196 Z M 152.70919,91.089595 v 10.000015 h -3 V 91.089595 Z m 0.5,62.999995 h 4 v 4 h -4 z M 3.2091936,84.089593 V 164.08959 H 163.20919 V 84.089593 Z" /><path
       d="m 27.925885,177.80477 v -10 h -1.999999 v -3.00001 h -8 v 3.00001 h -5 v -3.00001 H 4.9258846 v 3.00001 h -2.000001 v 10 h 2.000001 v 3.00001 h 8.0000014 v -3.00001 h 5 v 3.00001 h 8 v -3.00001 z"
       style="fill:none;stroke:#ff0000;stroke-width:0.005;stroke-dasharray:none;stroke-opacity:1"
       id="path668" /><path
       d="m 53.524204,177.60888 v -10.00001 h -1.999998 v -3 h -8 v 3 h -5 v -3 h -8 v 3 h -2 v 10.00001 h 2 v 3 h 8 v -3 h 5 v 3 h 8 v -3 z"
       style="fill:none;stroke:#ff0000;stroke-width:0.005;stroke-dasharray:none;stroke-opacity:1"
       id="path668-5" /><path
       d="m 78.991923,177.47825 v -10 h -2 v -3.00001 h -8 v 3.00001 h -5.000002 v -3.00001 h -7.999998 v 3.00001 h -2.000001 v 10 h 2.000001 v 3.00001 h 7.999998 v -3.00001 h 5.000002 v 3.00001 h 8 v -3.00001 z"
       style="fill:none;stroke:#ff0000;stroke-width:0.005;stroke-dasharray:none;stroke-opacity:1"
       id="path668-6" /><path
       d="m 104.39434,177.54358 v -10.00001 h -2 v -3 h -7.999997 v 3 h -5 v -3 h -8 v 3 h -2 v 10.00001 h 2 v 3 h 8 v -3 h 5 v 3 h 7.999997 v -3 z"
       style="fill:none;stroke:#ff0000;stroke-width:0.005;stroke-dasharray:none;stroke-opacity:1"
       id="path668-0" /><path
       d="m 129.86206,164.47438 h -2.00001 v 2.99998 h -8 v -2.99998 h -5 v 2.99998 h -8 v -2.99998 h -1.99999 v 9.99998 h 1.99999 v -3.00001 h 8 v 3.00001 h 5 v -3.00001 h 8 v 3.00001 h 2.00001 z"
       style="fill:none;stroke:#ff0000;stroke-width:0.005;stroke-dasharray:none;stroke-opacity:1"
       id="path770" /><path
       d="m 129.86206,174.92267 h -2.00001 v 2.99998 h -8 v -2.99998 h -5 v 2.99998 h -8 v -2.99998 h -1.99999 v 9.99998 h 1.99999 v -3.00001 h 8 v 3.00001 h 5 v -3.00001 h 8 v 3.00001 h 2.00001 z"
       style="fill:none;stroke:#ff0000;stroke-width:0.005;stroke-dasharray:none;stroke-opacity:1"
       id="path770-3" /><path
       d="m 157.45158,208.80109 v -6.00001 h 3 v -10.00001 h -3 v -11.99999 h 3 v -10.00001 h -3 v -5.99998 h -4.99999 v 5.99998 h -3.00001 v 10.00001 h 3.00001 v 11.99999 h -3.00001 v 10.00001 h 3.00001 v 6.00001 z"
       style="fill:none;stroke:#ff0000;stroke-width:0.005;stroke-dasharray:none;stroke-opacity:1"
       id="path865" /><path
       d="m 239.10541,104.19598 v -6.000013 h 3 v -10 h -3 v -11.99999 h 3 v -10 h -3 v -5.99998 h -4.99999 v 5.99998 h -3.00001 v 10 h 3.00001 v 11.99999 h -3.00001 v 10 h 3.00001 v 6.000013 z"
       style="fill:none;stroke:#ff0000;stroke-width:0.005;stroke-dasharray:none;stroke-opacity:1"
       id="path865-3" /><path
       d="m 2.7684956,189.82966 h 6.00001 v 3.00001 H 18.768513 v -3.00001 h 11.99999 v 3.00001 H 40.76851 v -3.00001 h 5.999982 v -4.99999 H 40.76851 v -3 H 30.768503 v 3 h -11.99999 v -3 H 8.7685056 v 3 h -6.00001 z"
       style="fill:none;stroke:#ff0000;stroke-width:0.005;stroke-dasharray:none;stroke-opacity:1"
       id="path865-2" /><path
       d="m 47.46626,189.82964 h 6.000009 v 3 h 10.000002 v -3 h 12.000002 v 3 h 10 v -3 h 5.99998 v -4.99999 h -5.99998 v -3.00001 h -10 v 3.00001 H 63.466271 v -3.00001 H 53.466269 v 3.00001 H 47.46626 Z"
       style="fill:none;stroke:#ff0000;stroke-width:0.005;stroke-dasharray:none;stroke-opacity:1"
       id="path865-6" /><path
       d="m 2.2143926,201.46585 h 6.000009 v 3.00001 H 18.214409 v -3.00001 h 11.999992 v 3.00001 h 10.000008 v -3.00001 h 5.999982 v -4.99999 h -5.999982 v -3 H 30.214401 v 3 H 18.214409 v -3 H 8.2144016 v 3 h -6.000009 z"
       style="fill:none;stroke:#ff0000;stroke-width:0.005;stroke-dasharray:none;stroke-opacity:1"
       id="path865-31" /><path
       d="m 47.096856,201.46585 h 6.000009 v 3.00001 h 10.000006 v -3.00001 h 11.999992 v 3.00001 h 10.00001 v -3.00001 h 5.99998 v -4.99999 h -5.99998 v -3 h -10.00001 v 3 H 63.096871 v -3 H 53.096865 v 3 h -6.000009 z"
       style="fill:none;stroke:#ff0000;stroke-width:0.005;stroke-dasharray:none;stroke-opacity:1"
       id="path865-7" /><path
       d="m 92.441073,193.43136 h 6.00001 v 3 h 10.000007 v -3 h 11.99999 v 3 h 10 v -3 h 5.99999 v -4.99999 h -5.99999 v -3.00001 h -10 v 3.00001 h -11.99999 v -3.00001 H 98.441083 v 3.00001 h -6.00001 z"
       style="fill:none;stroke:#ff0000;stroke-width:0.005;stroke-dasharray:none;stroke-opacity:1"
       id="path865-2-7" /><path
       d="m 226.00613,105.45449 v -6.000013 h 3 v -10.00001 h -3 v -11.99999 h 3 v -10.00001 h -3 v -5.99998 h -4.99999 v 5.99998 h -3 v 10.00001 h 3 v 11.99999 h -3 v 10.00001 h 3 v 6.000013 z"
       style="fill:none;stroke:#ff0000;stroke-width:0.005;stroke-dasharray:none;stroke-opacity:1"
       id="path865-6-8" /><path
       d="m 91.886973,205.06755 h 6.00001 v 3 h 9.999997 v -3 h 11.99999 v 3 h 10.00001 v -3 h 5.99998 v -4.99999 h -5.99998 v -3.00001 h -10.00001 v 3.00001 h -11.99999 v -3.00001 h -9.999997 v 3.00001 h -6.00001 z"
       style="fill:none;stroke:#ff0000;stroke-width:0.005;stroke-dasharray:none;stroke-opacity:1"
       id="path865-31-6" /><path
       d="m 145.75451,209.05263 v -6.00001 h 3 v -10 h -3 v -12 h 3 v -10 h -3 v -5.99999 h -4.99999 v 5.99999 h -3.00001 v 10 h 3.00001 v 12 h -3.00001 v 10 h 3.00001 v 6.00001 z"
       style="fill:none;stroke:#ff0000;stroke-width:0.005;stroke-dasharray:none;stroke-opacity:1"
       id="path865-7-8" /><path
       d="m 253.89597,102.96646 v -6.000013 h 3 v -10 h -3 v -11.99999 h 3 v -10.00001 h -3 v -5.99998 h -4.99999 v 5.99998 h -3.00001 v 10.00001 h 3.00001 v 11.99999 h -3.00001 v 10 h 3.00001 v 6.000013 z"
       style="fill:none;stroke:#ff0000;stroke-width:0.005;stroke-dasharray:none;stroke-opacity:1"
       id="path865-3-5" /><path
       d="m 267.35017,102.64324 v -6.000013 h 3 v -10.00001 h -3 v -11.99999 h 3 v -10 h -3 v -5.99999 h -4.99999 v 5.99999 h -3.00001 v 10 h 3.00001 v 11.99999 h -3.00001 v 10.00001 h 3.00001 v 6.000013 z"
       style="fill:none;stroke:#ff0000;stroke-width:0.005;stroke-dasharray:none;stroke-opacity:1"
       id="path865-3-1" /><path
       d="m 294.4259,107.2353 h -77 v 115 h 77 z"
       style="fill:none;stroke:#ff0000;stroke-width:0.005;stroke-dasharray:none;stroke-opacity:1"
       id="path3137" /><text
       xml:space="preserve"
       style="font-style:normal;font-weight:normal;font-size:5.75769px;line-height:1.25;font-family:sans-serif;letter-spacing:0px;word-spacing:0px;fill:#000000;fill-opacity:1;stroke:#000000;stroke-width:0.005;stroke-dasharray:none;stroke-opacity:1"
       x="133.49326"
       y="-191.37494"
       id="text4461"
       transform="matrix(0,0.92206579,-1.0845213,0,0,0)"><tspan
         sodipodi:role="line"
         id="tspan4459"
         style="stroke:#000000;stroke-width:0.005;stroke-dasharray:none;stroke-opacity:1"
         x="133.49326"
         y="-191.37494">Parqueo-matic</tspan></text><text
       xml:space="preserve"
       style="font-style:normal;font-weight:normal;font-size:6.58519px;line-height:1.25;font-family:sans-serif;letter-spacing:0px;word-spacing:0px;fill:#000000;fill-opacity:1;stroke:#000000;stroke-width:0.005;stroke-dasharray:none;stroke-opacity:1"
       x="6.1422548"
       y="-199.74176"
       id="text6019"
       transform="matrix(0,0.98142804,-1.0189234,0,0,0)"><tspan
         sodipodi:role="line"
         id="tspan6017"
         style="stroke:#000000;stroke-width:0.005;stroke-dasharray:none;stroke-opacity:1"
         x="6.1422548"
         y="-199.74176">Disponibles</tspan><tspan
         sodipodi:role="line"
         style="stroke:#000000;stroke-width:0.005;stroke-dasharray:none;stroke-opacity:1"
         x="6.1422548"
         y="-191.51027"
         id="tspan6021" /><tspan
         sodipodi:role="line"
         style="stroke:#000000;stroke-width:0.005;stroke-dasharray:none;stroke-opacity:1"
         x="6.1422548"
         y="-183.27878"
         id="tspan6023" /></text><path
       id="path7199"
       style="fill:none;stroke:#ff0000;stroke-width:0.005;stroke-dasharray:none;stroke-opacity:1"
       d="m 207.33343,53.714701 a 1.5,1.5 0 0 0 0,-3 1.5,1.5 0 0 0 0,3 z m -40.49999,0 a 1.5,1.5 0 0 0 0,-3 1.5,1.5 0 0 0 0,3 z m 0,67.079999 a 1.5,1.5 0 0 0 0,-3 1.5,1.5 0 0 0 0,3 z m 40.49999,0 a 1.5,1.5 0 0 0 0,-3 1.5,1.5 0 0 0 0,3 z m 3,-66.499989 V 115.2947 H 167.33345 V 54.294711 Z m -16.5,-50.0000002 V 1.2947107 h -9.99998 V 4.2947108 H 171.83343 V 1.2947107 h -7.99999 V 166.2947 h 7.99999 v -3 h 12.00002 v 3 h 9.99998 v -3 h 12 v 3 h 8 V 1.2947107 h -8 V 4.2947108 Z M 195.48344,156.2947 h -13.30001 v -10.3 h 13.30001 z m 2.84999,-131.999989 h -18.99998 v -13 h 18.99998 z" /><text
       xml:space="preserve"
       style="font-style:normal;font-weight:normal;font-size:7.59095px;line-height:1.25;font-family:sans-serif;letter-spacing:0px;word-spacing:0px;fill:#000000;fill-opacity:1;stroke:#000000;stroke-width:0.005;stroke-dasharray:none;stroke-opacity:1"
       x="134.50308"
       y="-186.77271"
       id="text7717"
       transform="matrix(0,1.077037,-0.92847321,0,0,0)"><tspan
         sodipodi:role="line"
         id="tspan7715"
         style="stroke:#000000;stroke-width:0.005;stroke-dasharray:none;stroke-opacity:1"
         x="134.50308"
         y="-186.77271">ON</tspan><tspan
         sodipodi:role="line"
         style="stroke:#000000;stroke-width:0.005;stroke-dasharray:none;stroke-opacity:1"
         x="134.50308"
         y="-177.28401"
         id="tspan7719" /></text><path
       d="m 47.328358,242.24627 v 14 h 2 v -3 h 2 v -6.00001 h -3 v -9.99998 h 3 v -12.00002 h -3 v -9.99999 h 3 v -6 h -2 v -3 h -10 v 3 h -2 v 6 h 3 v 9.99999 h -3 v 12.00002 h 3 v 9.99998 h -3 v 6.00001 h 2 v 3 h 2 v -14 z"
       style="fill:none;stroke:#ff0000;stroke-width:0.005;stroke-opacity:1;stroke-dasharray:none"
       id="path3579" /><path
       d="m 15.190299,242.98507 v 14 h 2 v -3 h 2 v -6 h -3 v -9.99998 h 3 v -12.00002 h -3 v -10 h 3 v -6 h -2 v -3 H 7.1902986 v 3 h -2 v 6 h 3 v 10 h -3 v 12.00002 h 3 v 9.99998 h -3 v 6 h 2 v 3 h 2 v -14 z"
       style="fill:none;stroke:#ff0000;stroke-width:0.005;stroke-opacity:1;stroke-dasharray:none"
       id="path3579-9" /><path
       d="m 31.444028,242.61568 v 14 h 2 v -3 h 2 v -6.00001 h -3 v -9.99998 h 3 v -12.00002 h -3 v -9.99999 h 3 v -6 h -2 v -3 H 23.44403 v 3 h -2 v 6 h 3 v 9.99999 h -3 v 12.00002 h 3 v 9.99998 h -3 v 6.00001 h 2 v 3 h 2 v -14 z"
       style="fill:none;stroke:#ff0000;stroke-width:0.005;stroke-opacity:1;stroke-dasharray:none"
       id="path3579-3" /><path
       d="m 62.843284,242.24627 v 14 h 2 v -3 h 2 v -6.00001 h -3 v -9.99998 h 3 v -12.00002 h -3 v -9.99999 h 3 v -6 h -2 v -3 h -10 v 3 h -2 v 6 h 3 v 9.99999 h -3 v 12.00002 h 3 v 9.99998 h -3 v 6.00001 h 2 v 3 h 2 v -14 z"
       style="fill:none;stroke:#ff0000;stroke-width:0.005;stroke-opacity:1;stroke-dasharray:none"
       id="path3579-6" /><path
       d="m 111.78918,245.5709 v 14 h 2 v -3 h 2 v -6.00001 h -3 v -9.99998 h 3 v -12.00002 h -3 v -9.99999 h 3 v -6 h -2 v -3 h -10 v 3 h -2 v 6 h 3 v 9.99999 h -3 v 12.00002 h 3 v 9.99998 h -3 v 6.00001 h 2 v 3 h 2 v -14 z"
       style="fill:none;stroke:#ff0000;stroke-width:0.005;stroke-opacity:1;stroke-dasharray:none"
       id="path3579-5" /><path
       d="m 79.651119,246.3097 v 14 h 2 v -3 h 2 v -6 h -3 v -9.99998 h 3 V 229.3097 h -3 v -10 h 3 v -6 h -2 v -3 h -10 v 3 h -2 v 6 h 3 v 10 h -3 v 12.00002 h 3 v 9.99998 h -3 v 6 h 2 v 3 h 2 v -14 z"
       style="fill:none;stroke:#ff0000;stroke-width:0.005;stroke-opacity:1;stroke-dasharray:none"
       id="path3579-9-0" /><path
       d="m 95.904848,245.94031 v 14 h 1.999999 v -3 h 2 v -6.00001 h -3 v -9.99998 h 3 V 228.9403 h -3 v -9.99999 h 3 v -6 h -2 v -3 H 87.90485 v 3 h -2 v 6 h 3 v 9.99999 h -3 v 12.00002 h 3 v 9.99998 h -3 v 6.00001 h 2 v 3 h 2 v -14 z"
       style="fill:none;stroke:#ff0000;stroke-width:0.005;stroke-opacity:1;stroke-dasharray:none"
       id="path3579-3-3" /><path
       d="m 127.30411,245.5709 v 14 h 2 v -3 h 2 v -6.00001 h -3 v -9.99998 h 3 v -12.00002 h -3 v -9.99999 h 3 v -6 h -2 v -3 h -10 v 3 h -2 v 6 h 3 v 9.99999 h -3 v 12.00002 h 3 v 9.99998 h -3 v 6.00001 h 2 v 3 h 2 v -14 z"
       style="fill:none;stroke:#ff0000;stroke-width:0.005;stroke-opacity:1;stroke-dasharray:none"
       id="path3579-6-4" /><path
       d="m 258.36341,39.583532 v 14 h 2 v -3 h 2 v -6.00001 h -3 v -9.99998 h 3 v -12.00002 h -3 v -9.99999 h 3 V 6.5835318 h -2 v -3 h -10 v 3 h -2 v 6.0000002 h 3 v 9.99999 h -3 v 12.00002 h 3 v 9.99998 h -3 v 6.00001 h 2 v 3 h 2 v -14 z"
       style="fill:none;stroke:#ff0000;stroke-width:0.005;stroke-dasharray:none;stroke-opacity:1"
       id="path3579-7" /><path
       d="m 226.22535,40.322332 v 14 h 2 v -3 h 2 v -6 h -3 v -9.99998 h 3 v -12.00002 h -3 v -10 h 3 V 7.3223318 h -2 v -3 h -10 v 3 h -2 v 6.0000002 h 3 v 10 h -3 v 12.00002 h 3 v 9.99998 h -3 v 6 h 2 v 3 h 2 v -14 z"
       style="fill:none;stroke:#ff0000;stroke-width:0.005;stroke-dasharray:none;stroke-opacity:1"
       id="path3579-9-2" /><path
       d="m 242.47908,39.952942 v 14 h 2 v -3 h 2 v -6.00001 h -3 v -9.99998 h 3 v -12.00002 h -3 v -9.99999 h 3 V 6.9529418 h -2 v -3 h -10 v 3 h -2 v 6.0000002 h 3 v 9.99999 h -3 v 12.00002 h 3 v 9.99998 h -3 v 6.00001 h 2 v 3 h 2 v -14 z"
       style="fill:none;stroke:#ff0000;stroke-width:0.005;stroke-dasharray:none;stroke-opacity:1"
       id="path3579-3-1" /><path
       d="m 273.87833,39.583532 v 14 h 2 v -3 h 2 v -6.00001 h -3 v -9.99998 h 3 v -12.00002 h -3 v -9.99999 h 3 V 6.5835318 h -2 v -3 h -10 v 3 h -2 v 6.0000002 h 3 v 9.99999 h -3 v 12.00002 h 3 v 9.99998 h -3 v 6.00001 h 2 v 3 h 2 v -14 z"
       style="fill:none;stroke:#ff0000;stroke-width:0.005;stroke-dasharray:none;stroke-opacity:1"
       id="path3579-6-9" /></g></svg>
