<?xml version="1.0" encoding="UTF-8" standalone="no"?>
<!-- Created with Inkscape (http://www.inkscape.org/) -->

<svg
   width="500mm"
   height="400mm"
   viewBox="0 0 500 400"
   version="1.1"
   id="svg5702"
   xml:space="preserve"
   inkscape:version="1.2.2 (732a01da63, 2022-12-09)"
   sodipodi:docname="parqueo2.svg"
   inkscape:export-filename="parqueo2.pdf"
   inkscape:export-xdpi="96"
   inkscape:export-ydpi="96"
   xmlns:inkscape="http://www.inkscape.org/namespaces/inkscape"
   xmlns:sodipodi="http://sodipodi.sourceforge.net/DTD/sodipodi-0.dtd"
   xmlns="http://www.w3.org/2000/svg"
   xmlns:svg="http://www.w3.org/2000/svg"><sodipodi:namedview
     id="namedview5704"
     pagecolor="#ffffff"
     bordercolor="#666666"
     borderopacity="1.0"
     inkscape:showpageshadow="2"
     inkscape:pageopacity="0.0"
     inkscape:pagecheckerboard="0"
     inkscape:deskcolor="#d1d1d1"
     inkscape:document-units="mm"
     showgrid="false"
     inkscape:zoom="0.3581229"
     inkscape:cx="43.281231"
     inkscape:cy="894.94417"
     inkscape:window-width="1920"
     inkscape:window-height="991"
     inkscape:window-x="-9"
     inkscape:window-y="-9"
     inkscape:window-maximized="1"
     inkscape:current-layer="layer1" /><defs
     id="defs5699"><marker
       id="DistanceX"
       orient="auto"
       refX="0.0"
       refY="0.0"
       style="overflow:visible"><path
         d="M 3,-3 L -3,3 M 0,-5 L  0,5"
         style="stroke:#000000; stroke-width:0.5"
         id="path6236" /></marker><pattern
       id="Hatch"
       patternUnits="userSpaceOnUse"
       width="8"
       height="8"
       x="0"
       y="0"><path
         d="M8 4 l-4,4"
         stroke="#000000"
         stroke-width="0.25"
         linecap="square"
         id="path6239" /><path
         d="M6 2 l-4,4"
         stroke="#000000"
         stroke-width="0.25"
         linecap="square"
         id="path6241" /><path
         d="M4 0 l-4,4"
         stroke="#000000"
         stroke-width="0.25"
         linecap="square"
         id="path6243" /></pattern><symbol
       id="*Model_Space" /><symbol
       id="*Paper_Space" /><symbol
       id="*Paper_Space0" /><marker
       id="DistanceX-9"
       orient="auto"
       refX="0.0"
       refY="0.0"
       style="overflow:visible"><path
         d="M 3,-3 L -3,3 M 0,-5 L  0,5"
         style="stroke:#000000; stroke-width:0.5"
         id="path6605" /></marker><pattern
       id="Hatch-6"
       patternUnits="userSpaceOnUse"
       width="8"
       height="8"
       x="0"
       y="0"><path
         d="M8 4 l-4,4"
         stroke="#000000"
         stroke-width="0.25"
         linecap="square"
         id="path6608" /><path
         d="M6 2 l-4,4"
         stroke="#000000"
         stroke-width="0.25"
         linecap="square"
         id="path6610" /><path
         d="M4 0 l-4,4"
         stroke="#000000"
         stroke-width="0.25"
         linecap="square"
         id="path6612" /></pattern><symbol
       id="*Model_Space-9" /><symbol
       id="*Paper_Space-1" /><symbol
       id="*Paper_Space0-1" /><marker
       id="DistanceX-7"
       orient="auto"
       refX="0.0"
       refY="0.0"
       style="overflow:visible"><path
         d="M 3,-3 L -3,3 M 0,-5 L  0,5"
         style="stroke:#000000; stroke-width:0.5"
         id="path6756" /></marker><pattern
       id="Hatch-3"
       patternUnits="userSpaceOnUse"
       width="8"
       height="8"
       x="0"
       y="0"><path
         d="M8 4 l-4,4"
         stroke="#000000"
         stroke-width="0.25"
         linecap="square"
         id="path6759" /><path
         d="M6 2 l-4,4"
         stroke="#000000"
         stroke-width="0.25"
         linecap="square"
         id="path6761" /><path
         d="M4 0 l-4,4"
         stroke="#000000"
         stroke-width="0.25"
         linecap="square"
         id="path6763" /></pattern><symbol
       id="*Model_Space-3" /><symbol
       id="*Paper_Space-10" /><symbol
       id="*Paper_Space0-6" /></defs><g
     inkscape:label="Layer 1"
     inkscape:groupmode="layer"
     id="layer1"><g
       inkscape:label="0"
       id="g6471"
       transform="matrix(0.26458333,0,0,0.26458333,2.932836,-294.18657)"
       style="stroke:#ff0000;stroke-opacity:1;stroke-width:0.01889764;stroke-dasharray:none"><path
         d="m 75.590551,1434.3307 v -311.811 H 0 v 944.8819 H 1133.8583 V 1122.5197 H 366.61417 v 311.811 z"
         style="fill:none;stroke:#ff0000;stroke-opacity:1;stroke-width:0.01889764;stroke-dasharray:none"
         id="path6251" /><path
         d="m 459.2126,1766.9291 v 15.1181 h -15.11811 v -15.1181 z"
         style="fill:none;stroke:#ff0000;stroke-opacity:1;stroke-width:0.01889764;stroke-dasharray:none"
         id="path6253" /><path
         d="m 444.09449,1422.9921 v -15.1181 h 15.11811 v 15.1181 z"
         style="fill:none;stroke:#ff0000;stroke-opacity:1;stroke-width:0.01889764;stroke-dasharray:none"
         id="path6255" /><path
         d="m 459.2126,1993.7008 v 15.1181 h -15.11811 v -15.1181 z"
         style="fill:none;stroke:#ff0000;stroke-opacity:1;stroke-width:0.01889764;stroke-dasharray:none"
         id="path6257" /><path
         d="m 459.2126,1196.2205 h -15.11811 v -15.1181 h 15.11811 z"
         style="fill:none;stroke:#ff0000;stroke-opacity:1;stroke-width:0.01889764;stroke-dasharray:none"
         id="path6259" /><path
         d="m 480,2008.8189 h 30.23622 v 11.3386 H 480 Z"
         style="fill:none;stroke:#ff0000;stroke-opacity:1;stroke-width:0.01889764;stroke-dasharray:none"
         id="path6261" /><path
         d="m 616.06299,1993.7008 v -11.3386 h 30.23622 v 11.3386 z"
         style="fill:none;stroke:#ff0000;stroke-opacity:1;stroke-width:0.01889764;stroke-dasharray:none"
         id="path6263" /><path
         d="m 801.25984,2008.8189 h 30.23622 v 11.3386 h -30.23622 z"
         style="fill:none;stroke:#ff0000;stroke-opacity:1;stroke-width:0.01889764;stroke-dasharray:none"
         id="path6265" /><path
         d="m 937.32284,2008.8189 h 30.23621 v 11.3386 h -30.23621 z"
         style="fill:none;stroke:#ff0000;stroke-opacity:1;stroke-width:0.01889764;stroke-dasharray:none"
         id="path6267" /><path
         d="m 510.23622,1169.7638 v 11.3386 H 480 v -11.3386 z"
         style="fill:none;stroke:#ff0000;stroke-opacity:1;stroke-width:0.01889764;stroke-dasharray:none"
         id="path6269" /><path
         d="m 665.19685,1181.1024 v -11.3386 h 30.23622 v 11.3386 z"
         style="fill:none;stroke:#ff0000;stroke-opacity:1;stroke-width:0.01889764;stroke-dasharray:none"
         id="path6271" /><path
         d="m 831.49606,1169.7638 v 11.3386 h -30.23622 v -11.3386 z"
         style="fill:none;stroke:#ff0000;stroke-opacity:1;stroke-width:0.01889764;stroke-dasharray:none"
         id="path6273" /><path
         d="m 937.32284,1181.1024 v -11.3386 h 30.23621 v 11.3386 z"
         style="fill:none;stroke:#ff0000;stroke-opacity:1;stroke-width:0.01889764;stroke-dasharray:none"
         id="path6275" /><path
         d="m 937.32284,1196.2205 h 30.23621 v 11.3386 h -30.23621 z"
         style="fill:none;stroke:#ff0000;stroke-opacity:1;stroke-width:0.01889764;stroke-dasharray:none"
         id="path6277" /><path
         d="m 801.25984,1196.2205 h 30.23622 v 11.3386 h -30.23622 z"
         style="fill:none;stroke:#ff0000;stroke-opacity:1;stroke-width:0.01889764;stroke-dasharray:none"
         id="path6279" /><path
         d="m 665.19685,1196.2205 h 30.23622 v 11.3386 h -30.23622 z"
         style="fill:none;stroke:#ff0000;stroke-opacity:1;stroke-width:0.01889764;stroke-dasharray:none"
         id="path6281" /><path
         d="m 480,1207.5591 v -11.3386 h 30.23622 v 11.3386 z"
         style="fill:none;stroke:#ff0000;stroke-opacity:1;stroke-width:0.01889764;stroke-dasharray:none"
         id="path6283" /><path
         d="m 967.55905,1993.7008 h -30.23621 v -11.3386 h 30.23621 z"
         style="fill:none;stroke:#ff0000;stroke-opacity:1;stroke-width:0.01889764;stroke-dasharray:none"
         id="path6285" /><path
         d="m 752.12598,2008.8189 h 30.23623 v 11.3386 h -30.23623 z"
         style="fill:none;stroke:#ff0000;stroke-opacity:1;stroke-width:0.01889764;stroke-dasharray:none"
         id="path6287" /><path
         d="m 665.19685,2008.8189 h 30.23622 v 11.3386 h -30.23622 z"
         style="fill:none;stroke:#ff0000;stroke-opacity:1;stroke-width:0.01889764;stroke-dasharray:none"
         id="path6289" /><path
         d="m 559.37008,1993.7008 h -30.23622 v -11.3386 h 30.23622 z"
         style="fill:none;stroke:#ff0000;stroke-opacity:1;stroke-width:0.01889764;stroke-dasharray:none"
         id="path6291" /><path
         d="m 529.13386,2008.8189 h 30.23622 v 11.3386 h -30.23622 z"
         style="fill:none;stroke:#ff0000;stroke-opacity:1;stroke-width:0.01889764;stroke-dasharray:none"
         id="path6293" /><path
         d="m 695.43307,1993.7008 h -30.23622 v -11.3386 h 30.23622 z"
         style="fill:none;stroke:#ff0000;stroke-opacity:1;stroke-width:0.01889764;stroke-dasharray:none"
         id="path6295" /><path
         d="m 831.49606,1993.7008 h -30.23622 v -11.3386 h 30.23622 z"
         style="fill:none;stroke:#ff0000;stroke-opacity:1;stroke-width:0.01889764;stroke-dasharray:none"
         id="path6297" /><path
         d="m 888.18898,2008.8189 h 30.23622 v 11.3386 h -30.23622 z"
         style="fill:none;stroke:#ff0000;stroke-opacity:1;stroke-width:0.01889764;stroke-dasharray:none"
         id="path6299" /><path
         d="m 529.13386,1169.7638 h 30.23622 v 11.3386 h -30.23622 z"
         style="fill:none;stroke:#ff0000;stroke-opacity:1;stroke-width:0.01889764;stroke-dasharray:none"
         id="path6301" /><path
         d="m 646.29921,1181.1024 h -30.23622 v -11.3386 h 30.23622 z"
         style="fill:none;stroke:#ff0000;stroke-opacity:1;stroke-width:0.01889764;stroke-dasharray:none"
         id="path6303" /><path
         d="m 782.36221,1181.1024 h -30.23623 v -11.3386 h 30.23623 z"
         style="fill:none;stroke:#ff0000;stroke-opacity:1;stroke-width:0.01889764;stroke-dasharray:none"
         id="path6305" /><path
         d="m 918.4252,1181.1024 h -30.23622 v -11.3386 h 30.23622 z"
         style="fill:none;stroke:#ff0000;stroke-opacity:1;stroke-width:0.01889764;stroke-dasharray:none"
         id="path6307" /><path
         d="m 918.4252,1207.5591 h -30.23622 v -11.3386 h 30.23622 z"
         style="fill:none;stroke:#ff0000;stroke-opacity:1;stroke-width:0.01889764;stroke-dasharray:none"
         id="path6309" /><path
         d="m 782.36221,1207.5591 h -30.23623 v -11.3386 h 30.23623 z"
         style="fill:none;stroke:#ff0000;stroke-opacity:1;stroke-width:0.01889764;stroke-dasharray:none"
         id="path6311" /><path
         d="m 616.06299,1196.2205 h 30.23622 v 11.3386 h -30.23622 z"
         style="fill:none;stroke:#ff0000;stroke-opacity:1;stroke-width:0.01889764;stroke-dasharray:none"
         id="path6313" /><path
         d="m 529.13386,1196.2205 h 30.23622 v 11.3386 h -30.23622 z"
         style="fill:none;stroke:#ff0000;stroke-opacity:1;stroke-width:0.01889764;stroke-dasharray:none"
         id="path6315" /><path
         d="m 888.18898,1993.7008 v -11.3386 h 30.23622 v 11.3386 z"
         style="fill:none;stroke:#ff0000;stroke-opacity:1;stroke-width:0.01889764;stroke-dasharray:none"
         id="path6317" /><path
         d="m 752.12598,1993.7008 v -11.3386 h 30.23623 v 11.3386 z"
         style="fill:none;stroke:#ff0000;stroke-opacity:1;stroke-width:0.01889764;stroke-dasharray:none"
         id="path6319" /><path
         d="m 616.06299,2008.8189 h 30.23622 v 11.3386 h -30.23622 z"
         style="fill:none;stroke:#ff0000;stroke-opacity:1;stroke-width:0.01889764;stroke-dasharray:none"
         id="path6321" /><path
         d="m 510.23622,1982.3622 v 11.3386 H 480 v -11.3386 z"
         style="fill:none;stroke:#ff0000;stroke-opacity:1;stroke-width:0.01889764;stroke-dasharray:none"
         id="path6323" /><path
         d="m 566.92913,1207.5591 v -37.7953 h 11.33859 v 37.7953 z"
         style="fill:none;stroke:#ff0000;stroke-opacity:1;stroke-width:0.01889764;stroke-dasharray:none"
         id="path6325" /><path
         d="m 442.20472,1434.3307 h -11.33858 v -37.7953 h 11.33858 z"
         style="fill:none;stroke:#ff0000;stroke-opacity:1;stroke-width:0.01889764;stroke-dasharray:none"
         id="path6327" /><path
         d="m 714.33071,1396.5354 v 37.7953 h -11.33858 v -37.7953 z"
         style="fill:none;stroke:#ff0000;stroke-opacity:1;stroke-width:0.01889764;stroke-dasharray:none"
         id="path6329" /><path
         d="m 839.05512,1207.5591 v -37.7953 h 11.33858 v 37.7953 z"
         style="fill:none;stroke:#ff0000;stroke-opacity:1;stroke-width:0.01889764;stroke-dasharray:none"
         id="path6331" /><path
         d="m 1005.3543,1396.5354 h 11.3386 v 37.7953 h -11.3386 z"
         style="fill:none;stroke:#ff0000;stroke-opacity:1;stroke-width:0.01889764;stroke-dasharray:none"
         id="path6333" /><path
         d="m 702.99213,1755.5906 h 11.33858 v 37.7952 h -11.33858 z"
         style="fill:none;stroke:#ff0000;stroke-opacity:1;stroke-width:0.01889764;stroke-dasharray:none"
         id="path6335" /><path
         d="m 430.86614,2020.1575 v -37.7953 h 11.33858 v 37.7953 z"
         style="fill:none;stroke:#ff0000;stroke-opacity:1;stroke-width:0.01889764;stroke-dasharray:none"
         id="path6337" /><path
         d="m 714.33071,1982.3622 v 37.7953 h -11.33858 v -37.7953 z"
         style="fill:none;stroke:#ff0000;stroke-opacity:1;stroke-width:0.01889764;stroke-dasharray:none"
         id="path6339" /><path
         d="m 986.45669,2020.1575 h -11.33858 v -37.7953 h 11.33858 z"
         style="fill:none;stroke:#ff0000;stroke-opacity:1;stroke-width:0.01889764;stroke-dasharray:none"
         id="path6341" /><path
         d="m 975.11811,1755.5906 h 11.33858 v 37.7952 h -11.33858 z"
         style="fill:none;stroke:#ff0000;stroke-opacity:1;stroke-width:0.01889764;stroke-dasharray:none"
         id="path6343" /><path
         d="m 869.29134,1755.5906 h 11.33858 v 37.7952 h -11.33858 z"
         style="fill:none;stroke:#ff0000;stroke-opacity:1;stroke-width:0.01889764;stroke-dasharray:none"
         id="path6345" /><path
         d="m 880.62992,2020.1575 h -11.33858 v -37.7953 h 11.33858 z"
         style="fill:none;stroke:#ff0000;stroke-opacity:1;stroke-width:0.01889764;stroke-dasharray:none"
         id="path6347" /><path
         d="m 597.16535,2020.1575 v -37.7953 h 11.33859 v 37.7953 z"
         style="fill:none;stroke:#ff0000;stroke-opacity:1;stroke-width:0.01889764;stroke-dasharray:none"
         id="path6349" /><path
         d="m 578.26772,1755.5906 v 37.7952 h -11.33859 v -37.7952 z"
         style="fill:none;stroke:#ff0000;stroke-opacity:1;stroke-width:0.01889764;stroke-dasharray:none"
         id="path6351" /><path
         d="m 472.44094,1793.3858 h -11.33858 v -37.7952 h 11.33858 z"
         style="fill:none;stroke:#ff0000;stroke-opacity:1;stroke-width:0.01889764;stroke-dasharray:none"
         id="path6353" /><path
         d="m 1016.6929,1169.7638 v 37.7953 h -11.3386 v -37.7953 z"
         style="fill:none;stroke:#ff0000;stroke-opacity:1;stroke-width:0.01889764;stroke-dasharray:none"
         id="path6355" /><path
         d="m 869.29134,1396.5354 h 11.33858 v 37.7953 h -11.33858 z"
         style="fill:none;stroke:#ff0000;stroke-opacity:1;stroke-width:0.01889764;stroke-dasharray:none"
         id="path6357" /><path
         d="m 597.16535,1434.3307 v -37.7953 h 11.33859 v 37.7953 z"
         style="fill:none;stroke:#ff0000;stroke-opacity:1;stroke-width:0.01889764;stroke-dasharray:none"
         id="path6359" /><path
         d="m 744.56693,1169.7638 v 37.7953 h -11.33858 v -37.7953 z"
         style="fill:none;stroke:#ff0000;stroke-opacity:1;stroke-width:0.01889764;stroke-dasharray:none"
         id="path6361" /><path
         d="m 461.10236,1207.5591 v -37.7953 h 11.33858 v 37.7953 z"
         style="fill:none;stroke:#ff0000;stroke-opacity:1;stroke-width:0.01889764;stroke-dasharray:none"
         id="path6363" /><path
         d="m 608.50394,1169.7638 v 37.7953 h -11.33859 v -37.7953 z"
         style="fill:none;stroke:#ff0000;stroke-opacity:1;stroke-width:0.01889764;stroke-dasharray:none"
         id="path6365" /><path
         d="m 461.10236,1434.3307 v -37.7953 h 11.33858 v 37.7953 z"
         style="fill:none;stroke:#ff0000;stroke-opacity:1;stroke-width:0.01889764;stroke-dasharray:none"
         id="path6367" /><path
         d="m 733.22835,1434.3307 v -37.7953 h 11.33858 v 37.7953 z"
         style="fill:none;stroke:#ff0000;stroke-opacity:1;stroke-width:0.01889764;stroke-dasharray:none"
         id="path6369" /><path
         d="m 880.62992,1169.7638 v 37.7953 h -11.33858 v -37.7953 z"
         style="fill:none;stroke:#ff0000;stroke-opacity:1;stroke-width:0.01889764;stroke-dasharray:none"
         id="path6371" /><path
         d="m 975.11811,1434.3307 v -37.7953 h 11.33858 v 37.7953 z"
         style="fill:none;stroke:#ff0000;stroke-opacity:1;stroke-width:0.01889764;stroke-dasharray:none"
         id="path6373" /><path
         d="m 733.22835,1755.5906 h 11.33858 v 37.7952 h -11.33858 z"
         style="fill:none;stroke:#ff0000;stroke-opacity:1;stroke-width:0.01889764;stroke-dasharray:none"
         id="path6375" /><path
         d="m 472.44094,1982.3622 v 37.7953 h -11.33858 v -37.7953 z"
         style="fill:none;stroke:#ff0000;stroke-opacity:1;stroke-width:0.01889764;stroke-dasharray:none"
         id="path6377" /><path
         d="m 733.22835,2020.1575 v -37.7953 h 11.33858 v 37.7953 z"
         style="fill:none;stroke:#ff0000;stroke-opacity:1;stroke-width:0.01889764;stroke-dasharray:none"
         id="path6379" /><path
         d="m 1005.3543,1982.3622 h 11.3386 v 37.7953 h -11.3386 z"
         style="fill:none;stroke:#ff0000;stroke-opacity:1;stroke-width:0.01889764;stroke-dasharray:none"
         id="path6381" /><path
         d="m 1016.6929,1793.3858 h -11.3386 v -37.7952 h 11.3386 z"
         style="fill:none;stroke:#ff0000;stroke-opacity:1;stroke-width:0.01889764;stroke-dasharray:none"
         id="path6383" /><path
         d="m 839.05512,1755.5906 h 11.33858 v 37.7952 h -11.33858 z"
         style="fill:none;stroke:#ff0000;stroke-opacity:1;stroke-width:0.01889764;stroke-dasharray:none"
         id="path6385" /><path
         d="m 850.3937,1982.3622 v 37.7953 h -11.33858 v -37.7953 z"
         style="fill:none;stroke:#ff0000;stroke-opacity:1;stroke-width:0.01889764;stroke-dasharray:none"
         id="path6387" /><path
         d="m 578.26772,1982.3622 v 37.7953 h -11.33859 v -37.7953 z"
         style="fill:none;stroke:#ff0000;stroke-opacity:1;stroke-width:0.01889764;stroke-dasharray:none"
         id="path6389" /><path
         d="m 597.16535,1755.5906 h 11.33859 v 37.7952 h -11.33859 z"
         style="fill:none;stroke:#ff0000;stroke-opacity:1;stroke-width:0.01889764;stroke-dasharray:none"
         id="path6391" /><path
         d="m 430.86614,1793.3858 v -37.7952 h 11.33858 v 37.7952 z"
         style="fill:none;stroke:#ff0000;stroke-opacity:1;stroke-width:0.01889764;stroke-dasharray:none"
         id="path6393" /><path
         d="m 975.11811,1207.5591 v -37.7953 h 11.33858 v 37.7953 z"
         style="fill:none;stroke:#ff0000;stroke-opacity:1;stroke-width:0.01889764;stroke-dasharray:none"
         id="path6395" /><path
         d="m 850.3937,1396.5354 v 37.7953 h -11.33858 v -37.7953 z"
         style="fill:none;stroke:#ff0000;stroke-opacity:1;stroke-width:0.01889764;stroke-dasharray:none"
         id="path6397" /><path
         d="m 578.26772,1396.5354 v 37.7953 h -11.33859 v -37.7953 z"
         style="fill:none;stroke:#ff0000;stroke-opacity:1;stroke-width:0.01889764;stroke-dasharray:none"
         id="path6399" /><path
         d="m 702.99213,1207.5591 v -37.7953 h 11.33858 v 37.7953 z"
         style="fill:none;stroke:#ff0000;stroke-opacity:1;stroke-width:0.01889764;stroke-dasharray:none"
         id="path6401" /><path
         d="m 442.20472,1207.5591 h -11.33858 v -37.7953 h 11.33858 z"
         style="fill:none;stroke:#ff0000;stroke-opacity:1;stroke-width:0.01889764;stroke-dasharray:none"
         id="path6403" /><path
         d="m 30.23622,2044.7244 h 37.795276 v 11.3386 H 30.23622 Z"
         style="fill:none;stroke:#ff0000;stroke-opacity:1;stroke-width:0.01889764;stroke-dasharray:none"
         id="path6405" /><path
         d="m 1111.1811,1190.5512 v -37.7953 h 11.3386 v 37.7953 z"
         style="fill:none;stroke:#ff0000;stroke-opacity:1;stroke-width:0.01889764;stroke-dasharray:none"
         id="path6407" /><path
         d="m 11.338583,1152.7559 h 11.338582 v 37.7953 H 11.338583 Z"
         style="fill:none;stroke:#ff0000;stroke-opacity:1;stroke-width:0.01889764;stroke-dasharray:none"
         id="path6409" /><path
         d="m 1122.5197,2037.1654 h -11.3386 v -37.7953 h 11.3386 z"
         style="fill:none;stroke:#ff0000;stroke-opacity:1;stroke-width:0.01889764;stroke-dasharray:none"
         id="path6411" /><path
         d="m 11.338583,2037.1654 v -37.7953 h 11.338582 v 37.7953 z"
         style="fill:none;stroke:#ff0000;stroke-opacity:1;stroke-width:0.01889764;stroke-dasharray:none"
         id="path6413" /><path
         d="m 1103.622,1145.1969 h -37.7952 v -11.3386 h 37.7952 z"
         style="fill:none;stroke:#ff0000;stroke-opacity:1;stroke-width:0.01889764;stroke-dasharray:none"
         id="path6415" /><path
         d="m 30.23622,1145.1969 v -11.3386 h 37.795276 v 11.3386 z"
         style="fill:none;stroke:#ff0000;stroke-opacity:1;stroke-width:0.01889764;stroke-dasharray:none"
         id="path6417" /><path
         d="m 1065.8268,2056.063 v -11.3386 h 37.7952 v 11.3386 z"
         style="fill:none;stroke:#ff0000;stroke-opacity:1;stroke-width:0.01889764;stroke-dasharray:none"
         id="path6419" /><path
         d="m 411.9685,1133.8583 v 11.3386 h -37.79527 v -11.3386 z"
         style="fill:none;stroke:#ff0000;stroke-opacity:1;stroke-width:0.01889764;stroke-dasharray:none"
         id="path6421" /><path
         d="m 932.22047,1195.6535 a 0.56693,0.56693 0 0 0 -1.13386,0 0.56693,0.56693 0 0 0 1.13386,0 z"
         style="fill:none;stroke:#ff0000;stroke-opacity:1;stroke-width:0.01889764;stroke-dasharray:none"
         id="path6423" /><path
         d="m 516.47244,1195.6535 a 0.56693,0.56693 0 0 0 -1.13386,0 0.56693,0.56693 0 0 0 1.13386,0 z"
         style="fill:none;stroke:#ff0000;stroke-opacity:1;stroke-width:0.01889764;stroke-dasharray:none"
         id="path6425" /><path
         d="m 656.31496,1195.6535 a 0.56693,0.56693 0 0 0 -1.13386,0 0.56693,0.56693 0 0 0 1.13386,0 z"
         style="fill:none;stroke:#ff0000;stroke-opacity:1;stroke-width:0.01889764;stroke-dasharray:none"
         id="path6427" /><path
         d="m 524.0315,2008.252 a 0.56693,0.56693 0 0 0 -1.13386,0 0.56693,0.56693 0 0 0 1.13386,0 z"
         style="fill:none;stroke:#ff0000;stroke-opacity:1;stroke-width:0.01889764;stroke-dasharray:none"
         id="path6429" /><path
         d="m 932.22047,2008.252 a 0.56693,0.56693 0 0 0 -1.13386,0 0.56693,0.56693 0 0 0 1.13386,0 z"
         style="fill:none;stroke:#ff0000;stroke-opacity:1;stroke-width:0.01889764;stroke-dasharray:none"
         id="path6431" /><path
         d="m 788.59843,2008.252 a 0.56693,0.56693 0 0 0 -1.13386,0 0.56693,0.56693 0 0 0 1.13386,0 z"
         style="fill:none;stroke:#ff0000;stroke-opacity:1;stroke-width:0.01889764;stroke-dasharray:none"
         id="path6433" /><path
         d="m 796.15748,2008.252 a 0.56693,0.56693 0 0 0 -1.13386,0 0.56693,0.56693 0 0 0 1.13386,0 z"
         style="fill:none;stroke:#ff0000;stroke-opacity:1;stroke-width:0.01889764;stroke-dasharray:none"
         id="path6435" /><path
         d="m 652.53543,2008.252 a 0.56693,0.56693 0 0 0 -1.13386,0 0.56693,0.56693 0 0 0 1.13386,0 z"
         style="fill:none;stroke:#ff0000;stroke-opacity:1;stroke-width:0.01889764;stroke-dasharray:none"
         id="path6437" /><path
         d="m 520.25197,2008.252 a 0.56693,0.56693 0 0 0 -1.13386,0 0.56693,0.56693 0 0 0 1.13386,0 z"
         style="fill:none;stroke:#ff0000;stroke-opacity:1;stroke-width:0.01889764;stroke-dasharray:none"
         id="path6439" /><path
         d="m 652.53543,1195.6535 a 0.56693,0.56693 0 0 0 -1.13386,0 0.56693,0.56693 0 0 0 1.13386,0 z"
         style="fill:none;stroke:#ff0000;stroke-opacity:1;stroke-width:0.01889764;stroke-dasharray:none"
         id="path6441" /><path
         d="m 792.37795,1195.6535 a 0.56693,0.56693 0 0 0 -1.13386,0 0.56693,0.56693 0 0 0 1.13386,0 z"
         style="fill:none;stroke:#ff0000;stroke-opacity:1;stroke-width:0.01889764;stroke-dasharray:none"
         id="path6443" /><path
         d="m 928.44095,1195.6535 a 0.56693,0.56693 0 0 0 -1.13386,0 0.56693,0.56693 0 0 0 1.13386,0 z"
         style="fill:none;stroke:#ff0000;stroke-opacity:1;stroke-width:0.01889764;stroke-dasharray:none"
         id="path6445" /><path
         d="m 788.59843,1195.6535 a 0.56693,0.56693 0 0 0 -1.13386,0 0.56693,0.56693 0 0 0 1.13386,0 z"
         style="fill:none;stroke:#ff0000;stroke-opacity:1;stroke-width:0.01889764;stroke-dasharray:none"
         id="path6447" /><path
         d="m 520.25197,1195.6535 a 0.56693,0.56693 0 0 0 -1.13386,0 0.56693,0.56693 0 0 0 1.13386,0 z"
         style="fill:none;stroke:#ff0000;stroke-opacity:1;stroke-width:0.01889764;stroke-dasharray:none"
         id="path6449" /><path
         d="m 660.09449,1195.6535 a 0.56693,0.56693 0 0 0 -1.13386,0 0.56693,0.56693 0 0 0 1.13386,0 z"
         style="fill:none;stroke:#ff0000;stroke-opacity:1;stroke-width:0.01889764;stroke-dasharray:none"
         id="path6451" /><path
         d="m 656.31496,2008.252 a 0.56693,0.56693 0 0 0 -1.13386,0 0.56693,0.56693 0 0 0 1.13386,0 z"
         style="fill:none;stroke:#ff0000;stroke-opacity:1;stroke-width:0.01889764;stroke-dasharray:none"
         id="path6453" /><path
         d="m 928.44095,2008.252 a 0.56693,0.56693 0 0 0 -1.13386,0 0.56693,0.56693 0 0 0 1.13386,0 z"
         style="fill:none;stroke:#ff0000;stroke-opacity:1;stroke-width:0.01889764;stroke-dasharray:none"
         id="path6455" /><path
         d="m 792.37795,2008.252 a 0.56693,0.56693 0 0 0 -1.13386,0 0.56693,0.56693 0 0 0 1.13386,0 z"
         style="fill:none;stroke:#ff0000;stroke-opacity:1;stroke-width:0.01889764;stroke-dasharray:none"
         id="path6457" /><path
         d="m 924.66142,2008.252 a 0.56693,0.56693 0 0 0 -1.13386,0 0.56693,0.56693 0 0 0 1.13386,0 z"
         style="fill:none;stroke:#ff0000;stroke-opacity:1;stroke-width:0.01889764;stroke-dasharray:none"
         id="path6459" /><path
         d="m 660.09449,2008.252 a 0.56693,0.56693 0 0 0 -1.13386,0 0.56693,0.56693 0 0 0 1.13386,0 z"
         style="fill:none;stroke:#ff0000;stroke-opacity:1;stroke-width:0.01889764;stroke-dasharray:none"
         id="path6461" /><path
         d="m 516.47244,2008.252 a 0.56693,0.56693 0 0 0 -1.13386,0 0.56693,0.56693 0 0 0 1.13386,0 z"
         style="fill:none;stroke:#ff0000;stroke-opacity:1;stroke-width:0.01889764;stroke-dasharray:none"
         id="path6463" /><path
         d="m 524.0315,1195.6535 a 0.56693,0.56693 0 0 0 -1.13386,0 0.56693,0.56693 0 0 0 1.13386,0 z"
         style="fill:none;stroke:#ff0000;stroke-opacity:1;stroke-width:0.01889764;stroke-dasharray:none"
         id="path6465" /><path
         d="m 796.15748,1195.6535 a 0.56693,0.56693 0 0 0 -1.13386,0 0.56693,0.56693 0 0 0 1.13386,0 z"
         style="fill:none;stroke:#ff0000;stroke-opacity:1;stroke-width:0.01889764;stroke-dasharray:none"
         id="path6467" /><path
         d="m 924.66142,1195.6535 a 0.56693,0.56693 0 0 0 -1.13386,0 0.56693,0.56693 0 0 0 1.13386,0 z"
         style="fill:none;stroke:#ff0000;stroke-opacity:1;stroke-width:0.01889764;stroke-dasharray:none"
         id="path6469" /></g><path
       d="m 28.231316,255.52962 h -2 v 2.99998 h -8 v -2.99998 h -5 v 2.99998 H 5.2313162 v -2.99998 h -2 v 9.99998 h 2 v -3 h 7.9999998 v 3 h 5 v -3 h 8 v 3 h 2 z"
       style="fill:none;stroke:#ff0000;stroke-width:0.005;stroke-opacity:1;stroke-dasharray:none"
       id="path6620" /><path
       d="m 54.293177,255.16254 h -2 v 2.99998 h -8 v -2.99998 h -5 v 2.99998 h -8 v -2.99998 h -2 v 9.99998 h 2 v -3 h 8 v 3 h 5 v -3 h 8 v 3 h 2 z"
       style="fill:none;stroke:#ff0000;stroke-width:0.005;stroke-opacity:1;stroke-dasharray:none"
       id="path6620-6" /><path
       d="m 138.25453,256.15936 h -2 v 2.99998 h -8 v -2.99998 h -5 v 2.99998 h -8 v -2.99998 h -2 v 9.99998 h 2 v -3 h 8 v 3 h 5 v -3 h 8 v 3 h 2 z"
       style="fill:none;stroke:#ff0000;stroke-width:0.005;stroke-opacity:1;stroke-dasharray:none"
       id="path6620-7" /><path
       d="m 110.65882,255.78997 h -2 v 2.99998 h -8 v -2.99998 h -4.999998 v 2.99998 h -8 v -2.99998 h -2 v 9.99998 h 2 v -3 h 8 v 3 h 4.999998 v -3 h 8 v 3 h 2 z"
       style="fill:none;stroke:#ff0000;stroke-width:0.005;stroke-opacity:1;stroke-dasharray:none"
       id="path6620-70" /><path
       d="m 82.686567,255.79852 h -2 v 2.99998 h -8 v -2.99998 h -5 v 2.99998 h -8 v -2.99998 h -2 v 9.99998 h 2 v -3 h 8 v 3 h 5 v -3 h 8 v 3 h 2 z"
       style="fill:none;stroke:#ff0000;stroke-width:0.005;stroke-opacity:1;stroke-dasharray:none"
       id="path6620-0" /><path
       d="m 165.46228,256.03659 h -2 v 2.99998 h -8 v -2.99998 h -5 v 2.99998 h -8 v -2.99998 h -2 v 9.99998 h 2 v -3 h 8 v 3 h 5 v -3 h 8 v 3 h 2 z"
       style="fill:none;stroke:#ff0000;stroke-width:0.005;stroke-opacity:1;stroke-dasharray:none"
       id="path6620-2" /><path
       d="m 191.52414,255.66951 h -2 v 2.99998 h -8 v -2.99998 h -5 v 2.99998 h -8 v -2.99998 h -2 v 9.99998 h 2 v -3 h 8 v 3 h 5 v -3 h 8 v 3 h 2 z"
       style="fill:none;stroke:#ff0000;stroke-width:0.005;stroke-opacity:1;stroke-dasharray:none"
       id="path6620-6-1" /><path
       d="m 275.48549,256.66633 h -2 v 2.99998 h -8 v -2.99998 h -5 v 2.99998 h -8 v -2.99998 h -2 v 9.99998 h 2 v -3 h 8 v 3 h 5 v -3 h 8 v 3 h 2 z"
       style="fill:none;stroke:#ff0000;stroke-width:0.005;stroke-opacity:1;stroke-dasharray:none"
       id="path6620-7-4" /><path
       d="m 247.88978,256.29694 h -2 v 2.99998 h -8 v -2.99998 h -5 v 2.99998 h -8 v -2.99998 h -2 v 9.99998 h 2 v -3 h 8 v 3 h 5 v -3 h 8 v 3 h 2 z"
       style="fill:none;stroke:#ff0000;stroke-width:0.005;stroke-opacity:1;stroke-dasharray:none"
       id="path6620-70-9" /><path
       d="m 219.91753,256.30549 h -2 v 2.99998 h -8 v -2.99998 h -5 v 2.99998 h -8 v -2.99998 h -2 v 9.99998 h 2 v -3 h 8 v 3 h 5 v -3 h 8 v 3 h 2 z"
       style="fill:none;stroke:#ff0000;stroke-width:0.005;stroke-opacity:1;stroke-dasharray:none"
       id="path6620-0-7" /><path
       d="M 103.93284,349.53732 V 272.53731 H 3.9328353 v 77.00001 z"
       style="fill:none;stroke:#ff0000;stroke-width:0.005;stroke-opacity:1;stroke-dasharray:none"
       id="path6771" /></g></svg>
