<?xml version="1.0" encoding="UTF-8" standalone="no"?>
<!-- Created with Inkscape (http://www.inkscape.org/) -->

<svg
   width="400mm"
   height="500mm"
   viewBox="0 0 400 500"
   version="1.1"
   id="svg390"
   inkscape:version="1.2.2 (732a01da63, 2022-12-09)"
   sodipodi:docname="UltimosArreglos.svg"
   xml:space="preserve"
   inkscape:export-filename="UltimosArreglos.pdf"
   inkscape:export-xdpi="96"
   inkscape:export-ydpi="96"
   xmlns:inkscape="http://www.inkscape.org/namespaces/inkscape"
   xmlns:sodipodi="http://sodipodi.sourceforge.net/DTD/sodipodi-0.dtd"
   xmlns="http://www.w3.org/2000/svg"
   xmlns:svg="http://www.w3.org/2000/svg"><sodipodi:namedview
     id="namedview392"
     pagecolor="#ffffff"
     bordercolor="#666666"
     borderopacity="1.0"
     inkscape:showpageshadow="2"
     inkscape:pageopacity="0.0"
     inkscape:pagecheckerboard="0"
     inkscape:deskcolor="#d1d1d1"
     inkscape:document-units="mm"
     showgrid="false"
     inkscape:zoom="0.25"
     inkscape:cx="1142"
     inkscape:cy="1214"
     inkscape:window-width="1920"
     inkscape:window-height="991"
     inkscape:window-x="-9"
     inkscape:window-y="-9"
     inkscape:window-maximized="1"
     inkscape:current-layer="layer1"
     showguides="true" /><defs
     id="defs387"><rect
       x="982.9028"
       y="210.82148"
       width="286.21459"
       height="41.885063"
       id="rect4443" /><rect
       x="963.35644"
       y="71.204606"
       width="242.93336"
       height="44.6774"
       id="rect4371" /><rect
       x="767.89281"
       y="37.696556"
       width="26.527206"
       height="160.55941"
       id="rect4353" /><marker
       id="DistanceX"
       orient="auto"
       refX="0.0"
       refY="0.0"
       style="overflow:visible"><path
         d="M 3,-3 L -3,3 M 0,-5 L  0,5"
         style="stroke:#000000; stroke-width:0.5"
         id="path1217" /></marker><pattern
       id="Hatch"
       patternUnits="userSpaceOnUse"
       width="8"
       height="8"
       x="0"
       y="0"><path
         d="M8 4 l-4,4"
         stroke="#000000"
         stroke-width="0.25"
         linecap="square"
         id="path1220" /><path
         d="M6 2 l-4,4"
         stroke="#000000"
         stroke-width="0.25"
         linecap="square"
         id="path1222" /><path
         d="M4 0 l-4,4"
         stroke="#000000"
         stroke-width="0.25"
         linecap="square"
         id="path1224" /></pattern><symbol
       id="*Model_Space" /><symbol
       id="*Paper_Space" /><symbol
       id="*Paper_Space0" /><marker
       id="DistanceX-0"
       orient="auto"
       refX="0.0"
       refY="0.0"
       style="overflow:visible"><path
         d="M 3,-3 L -3,3 M 0,-5 L  0,5"
         style="stroke:#000000; stroke-width:0.5"
         id="path3120" /></marker><pattern
       id="Hatch-0"
       patternUnits="userSpaceOnUse"
       width="8"
       height="8"
       x="0"
       y="0"><path
         d="M8 4 l-4,4"
         stroke="#000000"
         stroke-width="0.25"
         linecap="square"
         id="path3123" /><path
         d="M6 2 l-4,4"
         stroke="#000000"
         stroke-width="0.25"
         linecap="square"
         id="path3125" /><path
         d="M4 0 l-4,4"
         stroke="#000000"
         stroke-width="0.25"
         linecap="square"
         id="path3127" /></pattern><symbol
       id="*Model_Space-6" /><symbol
       id="*Paper_Space-7" /><symbol
       id="*Paper_Space0-1" /><marker
       id="DistanceX-2"
       orient="auto"
       refX="0.0"
       refY="0.0"
       style="overflow:visible"><path
         d="M 3,-3 L -3,3 M 0,-5 L  0,5"
         style="stroke:#000000; stroke-width:0.5"
         id="path7170" /></marker><pattern
       id="Hatch-5"
       patternUnits="userSpaceOnUse"
       width="8"
       height="8"
       x="0"
       y="0"><path
         d="M8 4 l-4,4"
         stroke="#000000"
         stroke-width="0.25"
         linecap="square"
         id="path7173" /><path
         d="M6 2 l-4,4"
         stroke="#000000"
         stroke-width="0.25"
         linecap="square"
         id="path7175" /><path
         d="M4 0 l-4,4"
         stroke="#000000"
         stroke-width="0.25"
         linecap="square"
         id="path7177" /></pattern><symbol
       id="*Model_Space-9" /><symbol
       id="*Paper_Space-8" /><symbol
       id="*Paper_Space0-7" /><marker
       id="DistanceX-8"
       orient="auto"
       refX="0.0"
       refY="0.0"
       style="overflow:visible"><path
         d="M 3,-3 L -3,3 M 0,-5 L  0,5"
         style="stroke:#000000; stroke-width:0.5"
         id="path358" /></marker><pattern
       id="Hatch-8"
       patternUnits="userSpaceOnUse"
       width="8"
       height="8"
       x="0"
       y="0"><path
         d="M8 4 l-4,4"
         stroke="#000000"
         stroke-width="0.25"
         linecap="square"
         id="path361" /><path
         d="M6 2 l-4,4"
         stroke="#000000"
         stroke-width="0.25"
         linecap="square"
         id="path363" /><path
         d="M4 0 l-4,4"
         stroke="#000000"
         stroke-width="0.25"
         linecap="square"
         id="path365" /></pattern><symbol
       id="*Model_Space-3" /><symbol
       id="*Paper_Space-4" /><symbol
       id="*Paper_Space0-9" /><marker
       id="DistanceX-5"
       orient="auto"
       refX="0.0"
       refY="0.0"
       style="overflow:visible"><path
         d="M 3,-3 L -3,3 M 0,-5 L  0,5"
         style="stroke:#000000; stroke-width:0.5"
         id="path1681" /></marker><pattern
       id="Hatch-7"
       patternUnits="userSpaceOnUse"
       width="8"
       height="8"
       x="0"
       y="0"><path
         d="M8 4 l-4,4"
         stroke="#000000"
         stroke-width="0.25"
         linecap="square"
         id="path1684" /><path
         d="M6 2 l-4,4"
         stroke="#000000"
         stroke-width="0.25"
         linecap="square"
         id="path1686" /><path
         d="M4 0 l-4,4"
         stroke="#000000"
         stroke-width="0.25"
         linecap="square"
         id="path1688" /></pattern><symbol
       id="*Model_Space-5" /><symbol
       id="*Paper_Space-9" /><symbol
       id="*Paper_Space0-97" /><marker
       id="DistanceX-4"
       orient="auto"
       refX="0.0"
       refY="0.0"
       style="overflow:visible"><path
         d="M 3,-3 L -3,3 M 0,-5 L  0,5"
         style="stroke:#000000; stroke-width:0.5"
         id="path2542" /></marker><pattern
       id="Hatch-6"
       patternUnits="userSpaceOnUse"
       width="8"
       height="8"
       x="0"
       y="0"><path
         d="M8 4 l-4,4"
         stroke="#000000"
         stroke-width="0.25"
         linecap="square"
         id="path2545" /><path
         d="M6 2 l-4,4"
         stroke="#000000"
         stroke-width="0.25"
         linecap="square"
         id="path2547" /><path
         d="M4 0 l-4,4"
         stroke="#000000"
         stroke-width="0.25"
         linecap="square"
         id="path2549" /></pattern><symbol
       id="*Model_Space-0" /><symbol
       id="*Paper_Space-70" /><symbol
       id="*Paper_Space0-2" /></defs><g
     inkscape:label="Layer 1"
     inkscape:groupmode="layer"
     id="layer1"><text
       xml:space="preserve"
       transform="scale(0.26458333)"
       id="text4351"
       style="font-style:normal;font-weight:normal;font-size:40px;line-height:1.25;font-family:sans-serif;letter-spacing:0px;word-spacing:0px;white-space:pre;shape-inside:url(#rect4353);display:inline;fill:#000000;fill-opacity:1;stroke:none" /><text
       xml:space="preserve"
       transform="scale(0.26458333)"
       id="text4369"
       style="font-style:normal;font-weight:normal;font-size:40px;line-height:1.25;font-family:sans-serif;letter-spacing:0px;word-spacing:0px;white-space:pre;shape-inside:url(#rect4371);display:inline;fill:#000000;fill-opacity:1;stroke:none"><tspan
         x="963.35547"
         y="152.37603"
         id="tspan8083"><tspan
           dx="0 23.144531 24.023438 17.070312 24.921875 25.3125 23.828125 38.90625 24.023438 15.761719 10.976562"
           id="tspan8081">Parquematic</tspan></tspan></text><text
       xml:space="preserve"
       transform="scale(0.26458333)"
       id="text4441"
       style="font-style:normal;font-weight:normal;font-size:40px;line-height:1.25;font-family:sans-serif;letter-spacing:0px;word-spacing:0px;white-space:pre;shape-inside:url(#rect4443);display:inline;fill:#000000;fill-opacity:1;stroke:none" /><text
       xml:space="preserve"
       style="font-style:normal;font-weight:normal;font-size:10.5833px;line-height:1.25;font-family:sans-serif;letter-spacing:0px;word-spacing:0px;fill:#000000;fill-opacity:1;stroke:none;stroke-width:0.264583"
       x="223.67351"
       y="115.99254"
       id="text7723"><tspan
         sodipodi:role="line"
         id="tspan7721"
         style="stroke-width:0.264583"
         x="223.67351"
         y="115.99254" /></text><path
       id="path2557"
       style="fill:none;stroke:#ff0000;stroke-width:0.005;stroke-dasharray:none;stroke-opacity:1"
       d="m 199.65758,75.000214 h -3 v 25.000006 h 3 v 24.99998 h -3 v 25 h 3 v 25 h -3 v 25 h 3 v 25 h -3 v 25 h 3 v 25.00001 h -3 v 25 h 3 v 25 h -3 v 24.99998 h 3 v 25 h -3 v 25 h 3 v 25.00001 h -3 v 25 h 3 v 25 h -3 v 25.00001 h 47 v -3.00001 h 25 v 3.00001 h 25 v -3.00001 h 25 v 3.00001 h 25 v -3.00001 h 25 v 3.00001 h 28.00001 V 475.0002 h -3 v -25 h 3 v -25 h -3 v -25.00001 h 3 v -25 h -3 v -25 h 3 v -24.99998 h -3 v -25 h 3 v -25 h -3 V 250.0002 h 3 v -25 h -3 v -25 h 3 v -25 h -3 v -25 h 3 v -25 h -3 v -24.99998 h 3 V 75.000214 h -3 v -25 h 3 v -25 h -3 V 2.1344052e-4 H 368.65758 V 3.0002134 h -25 V 2.1344052e-4 h -25 V 3.0002134 h -25 V 2.1344052e-4 h -25 V 3.0002134 h -25 V 2.1344052e-4 h -44 V 25.000214 h -3 v 25 h 3 z" /></g></svg>
